<svg width="1080" height="422" viewBox="0 0 1080 422" fill="none" xmlns="http://www.w3.org/2000/svg">
<rect x="6.58537" y="6.58537" width="1066.83" height="408.293" stroke="#2D2D2D" stroke-width="13.1707"/>
<path d="M185.181 218.698C177.565 218.698 170.86 217.035 165.066 213.709C159.273 210.277 154.768 205.556 151.549 199.548C148.331 193.434 146.722 186.408 146.722 178.468C146.722 168.921 149.082 160.553 153.802 153.367C158.63 146.179 165.442 140.654 174.239 136.792C183.143 132.931 193.549 130.999 205.457 130.999C210.928 130.999 215.38 131.374 218.813 132.126V128.747C218.813 120.593 217.311 114.532 214.308 110.563C211.304 106.486 206.745 104.448 200.63 104.448C190.76 104.448 184.431 109.651 181.642 120.057C180.784 123.061 179.014 124.348 176.332 123.919L154.447 120.057C152.837 119.735 151.711 119.038 151.067 117.965C150.531 116.892 150.477 115.444 150.906 113.62C153.696 102.678 159.596 94.203 168.607 88.1953C177.726 82.0805 189.15 79.0232 202.882 79.0232C219.188 79.0232 231.579 83.4215 240.054 92.2183C248.636 101.015 252.927 113.835 252.927 130.679V211.618C252.927 212.798 252.498 213.817 251.64 214.675C250.889 215.426 249.923 215.801 248.743 215.801H227.825C225.25 215.801 223.641 214.406 222.998 211.618L219.779 196.492H218.492C215.595 203.572 211.251 209.043 205.458 212.905C199.772 216.767 193.012 218.698 185.181 218.698ZM181.802 174.606C181.802 180.293 183.25 184.851 186.147 188.284C189.151 191.61 193.174 193.273 198.216 193.273C204.867 193.273 209.962 190.322 213.503 184.422C217.043 178.415 218.813 169.832 218.813 158.675V150.146C215.809 149.61 212.966 149.341 210.284 149.341C201.488 149.341 194.515 151.648 189.366 156.261C184.324 160.767 181.802 166.883 181.802 174.606ZM272.88 86.1029C272.88 84.9229 273.257 83.9574 274.007 83.2064C274.865 82.3481 275.884 81.9191 277.064 81.9191H298.306C299.486 81.9191 300.452 82.2945 301.202 83.0454C302.061 83.7964 302.597 84.8155 302.812 86.1028L306.031 101.872H307.317C310.214 94.4704 314.344 88.8382 319.709 84.9762C325.179 81.0069 331.616 79.0224 339.017 79.0224C346.956 79.0224 353.769 81.1142 359.454 85.2981C365.247 89.4819 369.699 95.4357 372.811 103.16H374.097C378.817 95.0066 384.129 88.9454 390.029 84.976C395.929 81.0067 402.526 79.0222 409.821 79.0222C417.759 79.0222 424.626 81.1677 430.417 85.4587C436.319 89.7499 440.824 95.8647 443.934 103.803C447.046 111.742 448.603 121.128 448.603 131.963V211.616C448.603 212.796 448.172 213.815 447.314 214.673C446.562 215.424 445.597 215.799 444.417 215.799H418.671C417.491 215.799 416.472 215.424 415.614 214.673C414.862 213.815 414.487 212.796 414.487 211.616V134.536C414.487 126.705 412.986 120.698 409.983 116.514C406.977 112.33 402.634 110.238 396.947 110.238C390.726 110.238 385.953 112.705 382.626 117.64C379.407 122.575 377.799 129.709 377.799 139.042V211.615C377.799 212.795 377.369 213.814 376.511 214.672C375.761 215.423 374.794 215.798 373.614 215.798H347.867C346.689 215.798 345.669 215.423 344.811 214.672C344.059 213.814 343.684 212.795 343.684 211.615V134.535C343.684 126.704 342.183 120.697 339.179 116.513C336.175 112.329 331.83 110.237 326.145 110.237C319.922 110.237 315.148 112.704 311.823 117.639C308.605 122.574 306.995 129.708 306.995 139.041V211.614C306.995 212.794 306.567 213.813 305.709 214.671C304.957 215.422 303.991 215.797 302.812 215.797H277.065C275.885 215.797 274.866 215.422 274.007 214.671C273.257 213.813 272.881 212.794 272.881 211.614L272.88 86.1029ZM465.335 178.468C465.335 168.92 467.697 160.552 472.417 153.366C477.244 146.178 484.055 140.653 492.854 136.791C501.757 132.93 512.164 130.999 524.07 130.999C529.542 130.999 533.994 131.374 537.427 132.125V128.746C537.427 120.593 535.923 114.531 532.92 110.562C529.917 106.486 525.359 104.447 519.244 104.447C509.374 104.447 503.043 109.65 500.255 120.056C499.397 123.06 497.627 124.347 494.945 123.918L473.06 120.056C471.45 119.734 470.323 119.037 469.68 117.964C469.145 116.892 469.09 115.443 469.52 113.62C472.308 102.677 478.208 94.2024 487.222 88.1947C496.338 82.0799 507.763 79.0226 521.495 79.0226C537.802 79.0226 550.192 83.4209 558.667 92.2177C567.248 101.014 571.54 113.834 571.54 130.678V211.618C571.54 212.798 571.112 213.816 570.254 214.674C569.502 215.425 568.537 215.801 567.357 215.801H546.439C543.864 215.801 542.253 214.406 541.61 211.618L538.392 196.492H537.105C534.209 203.572 529.864 209.042 524.07 212.904C518.385 216.767 511.627 218.698 503.795 218.698C495.964 218.698 489.474 217.035 483.68 213.709C477.887 210.277 473.382 205.556 470.164 199.548C466.945 193.434 465.335 186.407 465.335 178.468ZM500.417 174.606C500.417 180.292 501.863 184.851 504.76 188.284C507.763 191.609 511.787 193.272 516.828 193.272C523.48 193.272 528.575 190.321 532.117 184.421C535.655 178.414 537.427 169.832 537.427 158.675V150.146C534.422 149.609 531.58 149.341 528.897 149.341C520.102 149.341 513.129 151.647 507.979 156.261C502.937 160.766 500.417 166.882 500.417 174.606ZM588.92 192.146C588.92 189.786 589.564 187.747 590.85 186.031L645.883 108.952H594.39C593.21 108.952 592.192 108.577 591.334 107.826C590.582 106.968 590.207 105.949 590.207 104.769V86.1025C590.207 84.9225 590.582 83.957 591.334 83.206C592.192 82.3477 593.21 81.9187 594.39 81.9187H679.032C680.214 81.9187 681.179 82.3477 681.928 83.206C682.787 83.957 683.215 84.9224 683.215 86.1025V105.573C683.215 107.933 682.572 109.972 681.285 111.688L631.4 180.238C634.405 179.703 637.462 179.434 640.574 179.434C648.299 179.434 655.379 180.131 661.815 181.526C668.359 182.814 675.117 184.958 682.09 187.962C684.557 189.035 685.79 190.859 685.79 193.434V211.939C685.79 213.655 685.255 214.835 684.182 215.479C683.108 216.015 681.769 215.962 680.158 215.318C672.114 212.314 664.978 210.223 658.757 209.042C652.642 207.755 645.937 207.111 638.642 207.111C631.347 207.111 624.375 207.755 617.402 209.042C610.535 210.33 602.92 212.421 594.552 215.318C592.942 215.855 591.602 215.855 590.529 215.318C589.457 214.674 588.92 213.548 588.92 211.939V192.146ZM692.872 148.859C692.872 135.772 695.392 123.917 700.433 113.298C705.477 102.57 712.395 94.2022 721.192 88.1941C730.097 82.0793 739.965 79.022 750.8 79.022C761.635 79.022 771.612 82.0793 780.408 88.1941C789.313 94.2016 796.287 102.569 801.328 113.298C806.477 123.918 809.052 135.773 809.052 148.859C809.052 161.947 806.477 173.856 801.328 184.582C796.287 195.203 789.313 203.571 780.408 209.686C771.612 215.693 761.743 218.697 750.8 218.697C739.858 218.697 730.097 215.693 721.192 209.686C712.395 203.571 705.477 195.203 700.433 184.582C695.392 173.855 692.872 161.947 692.872 148.859ZM728.272 148.859C728.272 162.484 730.203 172.998 734.065 180.399C737.929 187.694 743.505 191.341 750.8 191.341C758.095 191.341 763.729 187.694 767.697 180.399C771.667 172.998 773.65 162.484 773.65 148.859C773.65 135.235 771.667 124.776 767.697 117.481C763.729 110.078 758.095 106.377 750.8 106.377C743.505 106.377 737.929 110.078 734.065 117.481C730.203 124.775 728.272 135.235 728.272 148.859ZM826.43 86.1025C826.43 84.9225 826.807 83.957 827.559 83.206C828.417 82.3477 829.435 81.9187 830.615 81.9187H851.855C853.035 81.9187 854.002 82.2941 854.752 83.045C855.61 83.796 856.147 84.8151 856.362 86.1024L859.58 101.872H860.867C863.763 94.5772 868 88.9452 873.58 84.9759C879.265 81.0065 885.917 79.022 893.533 79.022C901.685 79.022 908.711 81.1675 914.611 85.4585C920.62 89.7497 925.233 95.8645 928.452 103.803C931.67 111.741 933.278 121.128 933.278 131.963V211.616C933.278 212.796 932.85 213.814 931.992 214.673C931.242 215.424 930.275 215.799 929.095 215.799H903.348C902.168 215.799 901.15 215.424 900.292 214.673C899.54 213.814 899.165 212.796 899.165 211.616V134.536C899.165 126.704 897.555 120.697 894.336 116.514C891.118 112.33 886.56 110.238 880.66 110.238C874.115 110.238 869.127 112.705 865.695 117.64C862.262 122.575 860.545 129.709 860.545 139.042V211.615C860.545 212.795 860.117 213.813 859.258 214.672C858.507 215.423 857.542 215.798 856.362 215.798H830.615C829.435 215.798 828.417 215.423 827.559 214.672C826.807 213.813 826.43 212.795 826.43 211.615V86.1025Z" fill="#2D2D2D"/>
<path d="M236.195 234.307C234.157 235.917 233.727 238.598 234.908 242.353C235.98 245.679 238.501 249.808 242.471 254.743C258.454 274.484 277.495 290.895 299.595 303.983C321.696 317.072 345.351 326.727 370.561 332.948C395.877 339.277 421.73 342.442 448.12 342.442C481.914 342.442 514.097 337.509 544.67 327.638C575.243 317.875 600.777 304.143 621.267 286.443C628.454 280.115 632.049 275.072 632.049 271.317C632.049 269.923 631.459 268.528 630.279 267.133C628.669 265.525 626.737 264.988 624.485 265.525C622.232 266.06 619.067 267.402 614.99 269.547C595.359 279.847 571.437 288.052 543.222 294.167C515.117 300.391 485.775 303.501 455.202 303.501C417.334 303.501 380.752 298.352 345.457 288.052C310.164 277.754 278.892 261.662 251.644 239.779C247.675 236.668 244.456 234.683 241.989 233.825C239.629 232.966 237.697 233.127 236.195 234.307Z" fill="#2D2D2D"/>
<path d="M593.738 242.357C591.485 244.503 590.895 246.756 591.968 249.116C592.718 250.833 594.166 251.798 596.313 252.013C598.458 252.334 601.515 252.119 605.485 251.369C611.921 249.975 618.626 249.008 625.598 248.472C632.571 248.043 638.633 248.15 643.783 248.794C648.933 249.545 652.15 250.833 653.438 252.656C655.37 255.553 654.671 261.667 651.345 271.001C648.128 280.333 643.73 289.398 638.15 298.196C636.005 301.736 634.718 304.524 634.288 306.564C633.86 308.603 634.396 310.317 635.898 311.712C636.863 312.677 637.936 313.161 639.116 313.161C642.228 313.161 646.733 310.426 652.633 304.954C663.253 295.729 670.708 284.786 675.002 272.127C677.36 265.583 678.808 258.718 679.345 251.531C679.881 244.344 679.076 239.194 676.931 236.083C674.893 233.079 670.386 230.611 663.415 228.681C656.548 226.75 649.63 225.784 642.656 225.784C629.031 225.784 616.105 229.003 603.877 235.44C599.37 237.907 595.992 240.212 593.738 242.357Z" fill="#2D2D2D"/>
</svg>
