<svg width="1080" height="422" viewBox="0 0 1080 422" fill="none" xmlns="http://www.w3.org/2000/svg">
<rect x="6.58537" y="6.58537" width="1066.83" height="408.293" stroke="#2D2D2D" stroke-width="13.1707"/>
<path d="M863.967 224.026L999.987 139.216V162.215L863.967 247.385L727.768 162.215V139.216L863.967 224.026Z" fill="#2D2D2D"/>
<path d="M863.967 117.659C833.241 117.659 806.289 133.112 790.836 157.01C792.094 155.752 792.813 155.033 794.07 154.135C832.343 122.331 887.505 129.518 917.512 169.587L937.457 156.83C921.645 133.651 894.513 117.659 863.967 117.659Z" fill="#2D2D2D"/>
<path d="M863.967 157.004C847.256 157.004 832.522 165.449 823.718 177.668C830.905 172.457 839.171 169.762 847.975 169.762C862.709 169.762 875.826 177.309 884.63 190.066L903.677 178.207C895.411 165.09 880.677 157.004 863.967 157.004Z" fill="#2D2D2D"/>
<path d="M771.97 122.505C828.031 78.3028 907.271 90.3415 949.496 149.098L949.856 149.457L970.519 136.7C947.879 102.021 908.529 79.0215 863.968 79.0215C819.766 79.0215 780.415 101.661 757.416 136.7C761.548 132.028 766.759 126.458 771.97 122.505Z" fill="#2D2D2D"/>
<path d="M203.814 294.286V213.07H230.407V293.388C230.407 312.973 246.758 317.645 255.922 317.645C275.867 317.645 282.515 305.786 282.515 298.958V213.07H309.108V339.207H293.655L283.234 324.832C276.047 333.637 264.188 341.543 246.579 341.543C221.243 341.722 203.814 325.012 203.814 294.286Z" fill="#2D2D2D"/>
<path d="M506.219 168.689V339.387H521.313L531.195 325.013C538.383 333.817 550.242 342.082 567.85 342.082C591.389 342.082 611.154 327.708 611.154 295.904V256.913C611.154 225.109 591.209 210.735 566.593 210.735C549.523 210.735 538.023 218.281 531.914 225.828V168.509L506.219 168.689ZM560.304 317.825C543.953 317.825 532.094 309.919 532.453 292.67V257.991C532.453 244.515 543.234 234.093 560.663 234.093C573.061 234.093 585.28 243.257 585.28 257.991V293.389C585.28 309.021 572.702 317.825 560.304 317.825Z" fill="#2D2D2D"/>
<path d="M406.675 168.689V226.008C400.746 218.462 389.246 210.915 371.997 210.915C347.38 210.915 327.435 225.289 327.435 257.093V296.084C327.435 327.888 347.38 342.263 370.739 342.263C388.168 342.263 400.207 333.818 407.394 325.193L417.277 339.568H432.37V168.869H406.675V168.689ZM353.31 293.928V258.531C353.31 243.797 365.708 234.633 377.926 234.633C395.355 234.633 406.136 244.515 406.136 258.531V293.209C406.496 310.279 394.637 318.365 378.285 318.365C366.067 317.826 353.31 309.021 353.31 293.928Z" fill="#2D2D2D"/>
<path d="M629.122 168.689H655.715V339.388H629.122V168.689Z" fill="#2D2D2D"/>
<path d="M483.039 213.25H456.446V339.387H483.039V213.25Z" fill="#2D2D2D"/>
<path d="M469.923 197.976C478.259 197.976 485.016 191.218 485.016 182.882C485.016 174.547 478.259 167.789 469.923 167.789C461.587 167.789 454.83 174.547 454.83 182.882C454.83 191.218 461.587 197.976 469.923 197.976Z" fill="#2D2D2D"/>
<path d="M729.025 317.826C710.698 317.826 701.893 308.302 701.893 295.186V284.764H780.594V256.554C780.594 227.445 760.29 210.375 728.846 210.375C696.143 210.375 675.12 228.703 675.12 257.273V296.264C675.12 325.372 696.143 342.442 728.846 342.442C753.103 342.442 771.071 332.56 778.258 315.849L759.212 303.99C752.564 313.154 742.861 317.826 729.025 317.826ZM701.893 256.913C701.893 243.796 711.057 234.633 728.127 234.633C745.197 234.633 754.361 243.796 754.361 256.913V264.819H702.253L701.893 256.913Z" fill="#2D2D2D"/>
<path d="M135.355 210.375C109.481 210.375 92.7705 220.797 86.4816 236.25L107.145 249.007C115.95 234.992 124.215 234.273 135.355 234.273C151.706 234.273 158.894 241.82 158.894 254.218V264.101H136.433C120.082 264.101 80.0131 269.671 80.0131 304.349C80.0131 328.966 98.7 341.364 121.34 341.364C139.308 341.364 152.425 332.919 159.972 324.294L170.393 338.669H185.846V252.241C185.487 228.344 168.776 210.375 135.355 210.375ZM158.714 299.139C158.355 301.115 158.355 303.451 155.839 306.685C151.886 312.255 141.464 317.826 129.605 317.826C116.848 317.826 107.684 312.615 107.684 302.373C107.684 287.28 131.941 284.045 147.394 283.327H158.894L158.714 299.139Z" fill="#2D2D2D"/>
</svg>
