<svg width="1080" height="422" viewBox="0 0 1080 422" fill="none" xmlns="http://www.w3.org/2000/svg">
<rect x="6.58537" y="6.58537" width="1066.83" height="408.293" stroke="#2D2D2D" stroke-width="13.1707"/>
<path d="M371.507 259.856C369.951 261.086 369.623 263.133 370.524 266.001C371.344 268.541 373.269 271.695 376.3 275.464C388.507 290.538 403.049 303.073 419.926 313.068C436.803 323.063 454.868 330.437 474.121 335.188C493.456 340.022 513.2 342.439 533.354 342.439C559.161 342.439 583.739 338.671 607.088 331.133C630.437 323.677 649.936 313.191 665.585 299.673C671.073 294.84 673.818 290.989 673.818 288.121C673.818 287.056 673.367 285.991 672.466 284.926C671.237 283.698 669.762 283.288 668.042 283.698C666.322 284.107 663.905 285.131 660.791 286.77C645.799 294.635 627.529 300.902 605.982 305.572C584.518 310.323 562.111 312.699 538.762 312.699C509.841 312.699 481.904 308.767 454.95 300.902C427.996 293.037 404.114 280.748 383.305 264.035C380.274 261.659 377.815 260.143 375.931 259.488C374.129 258.832 372.654 258.955 371.507 259.856Z" fill="#2D2D2D"/>
<path d="M644.565 266.008C642.845 267.646 642.394 269.367 643.214 271.17C643.787 272.48 644.893 273.217 646.532 273.382C648.17 273.627 650.505 273.463 653.536 272.89C658.452 271.825 663.572 271.087 668.898 270.678C674.223 270.35 678.852 270.432 682.784 270.923C686.717 271.497 689.175 272.48 690.158 273.873C691.633 276.085 691.1 280.755 688.56 287.883C686.103 295.01 682.744 301.933 678.483 308.651C676.845 311.354 675.862 313.484 675.534 315.042C675.207 316.598 675.616 317.909 676.763 318.974C677.5 319.711 678.319 320.08 679.22 320.08C681.597 320.08 685.038 317.99 689.544 313.812C697.655 306.767 703.348 298.41 706.626 288.743C708.428 283.745 709.533 278.502 709.943 273.013C710.353 267.524 709.738 263.591 708.1 261.215C706.543 258.921 703.102 257.037 697.777 255.563C692.534 254.088 687.25 253.35 681.924 253.35C671.519 253.35 661.647 255.808 652.308 260.724C648.867 262.608 646.286 264.37 644.565 266.008Z" fill="#2D2D2D"/>
<path d="M395.138 219.831C396.879 219.831 397.846 218.09 397.072 216.543L366.706 157.358L394.171 121.189C395.525 119.448 394.558 117.707 392.43 117.707H368.834C367.286 117.707 366.126 118.481 365.159 119.641L337.693 157.744H336.92V87.921C336.92 85.9868 335.566 84.4395 333.825 84.4395H313.71C311.969 84.4395 310.808 85.9868 310.808 87.921V216.543C310.808 218.477 311.969 219.831 313.71 219.831H333.825C335.566 219.831 336.92 218.477 336.92 216.543V196.234L348.718 179.407H349.685L369.22 217.897C369.801 219.058 371.155 219.831 372.315 219.831H395.138Z" fill="#2D2D2D"/>
<path d="M417.107 79.0244C425.424 79.0244 432.387 84.4401 432.387 94.1109C432.387 103.395 425.424 109.004 417.107 109.004C408.984 109.004 402.021 103.395 402.021 94.1109C402.021 84.4401 408.984 79.0244 417.107 79.0244ZM404.148 216.544V120.609C404.148 118.868 405.695 117.708 407.63 117.708H427.165C428.905 117.708 430.259 118.868 430.259 120.609V216.544C430.259 218.478 428.905 219.832 427.165 219.832H407.63C405.695 219.832 404.148 218.478 404.148 216.544Z" fill="#2D2D2D"/>
<path d="M497.836 115.386C516.597 115.386 528.202 130.859 528.202 155.81V216.543C528.202 218.477 527.042 219.831 525.107 219.831H505.379C503.445 219.831 502.091 218.477 502.091 216.543V157.744C502.091 145.946 497.062 139.369 487.971 139.369C478.107 139.369 472.691 147.106 472.691 161.226V216.543C472.691 218.477 471.338 219.831 469.403 219.831H449.675C447.741 219.831 446.58 218.477 446.58 216.543V120.801C446.58 118.867 447.934 117.707 449.675 117.707H466.115C467.856 117.707 469.017 118.867 469.403 120.801L471.918 132.987H472.885C477.333 121.575 486.231 115.386 497.836 115.386Z" fill="#2D2D2D"/>
<path d="M540.344 168.769C540.344 136.469 554.464 115.386 575.353 115.386C586.378 115.386 594.501 120.608 600.497 131.827H601.464V87.921C601.464 85.9868 602.625 84.4395 604.559 84.4395H624.287C626.222 84.4395 627.382 85.9868 627.382 87.921V216.543C627.382 218.477 626.222 219.831 624.287 219.831H608.04C606.3 219.831 605.139 218.671 604.559 216.543L602.044 204.745H601.271C596.822 214.996 586.571 221.959 575.353 221.959C554.464 221.959 540.344 200.683 540.344 168.769ZM584.637 200.103C595.662 200.103 601.851 188.498 601.851 168.769C601.851 148.46 595.662 136.855 584.637 136.855C573.612 136.855 567.229 148.46 567.229 168.769C567.229 188.885 573.612 200.103 584.637 200.103Z" fill="#2D2D2D"/>
<path d="M646.616 84.4395H666.731C668.472 84.4395 669.826 85.9868 669.826 87.921V216.543C669.826 218.477 668.472 219.831 666.731 219.831H646.616C644.875 219.831 643.714 218.477 643.714 216.543V87.921C643.714 85.9868 644.875 84.4395 646.616 84.4395Z" fill="#2D2D2D"/>
<path d="M727.027 115.386C751.977 115.386 769.192 137.242 769.192 167.995V173.024C769.192 175.152 767.838 176.312 766.097 176.312H709.813C710.973 192.946 716.582 201.456 727.027 201.456C734.57 201.456 740.566 197.975 742.693 188.497C743.08 186.37 744.241 185.596 746.175 185.983L764.55 190.045C766.484 190.431 767.451 191.785 766.677 193.913C760.488 212.094 746.175 221.958 727.027 221.958C700.529 221.958 682.541 200.683 682.541 169.349C682.541 138.016 700.915 115.386 727.027 115.386ZM742.693 159.098C741.339 143.818 736.117 135.888 727.027 135.888C718.129 135.888 711.94 144.205 710.006 159.098H742.693Z" fill="#2D2D2D"/>
</svg>
